# xmcd
#
# Track frame offsets: 
#        182
#        9257
#        10855
#        30005
#        57002
#        71567
#        85870
#        102602
#        126560
#        154157
#
# Disc length: 2322 seconds
#
# Revision: 0
# Processed by: cddbd v1.4PL0 Copyright (c) Steve Scherf et al.
# Submitted via: ExactAudioCopy v0.90b4
#
DISCID=7209100a
DTITLE=Bobby Womack - The Womack LIVE
DYEAR=1970
DGENRE=R&B
TTITLE0=Let It Out
TTITLE1=Intro
TTITLE2=Oh How I Miss You Baby
TTITLE3=California Dreaming
TTITLE4=Something
TTITLE5=Everybody's Talking
TTITLE6=Laughing And Clowning To Live The Past
TTITLE7=I'm A Midnight Mover
TTITLE8=The Preacher
TTITLE9=More Than I Can Stand
EXTD=
EXTT0=
EXTT1=
EXTT2=
EXTT3=
EXTT4=
EXTT5=
EXTT6=
EXTT7=
EXTT8=
EXTT9=
PLAYORDER=
